<?xml version="1.0" encoding="utf-8"?>
<!-- Generator: Adobe Illustrator 23.0.2, SVG Export Plug-In . SVG Version: 6.00 Build 0)  -->
<svg version="1.1" id="App_Icon_Kit_A" xmlns="http://www.w3.org/2000/svg" xmlns:xlink="http://www.w3.org/1999/xlink" x="0px"
	 y="0px" viewBox="0 0 180 180" style="enable-background:new 0 0 180 180;" xml:space="preserve">
<style type="text/css">
	.st0{fill:url(#App_Icon_Placeholder_2_);}
	.st1{fill:#99CC67;}
</style>
<g id="App_Icon_-_Preview_Sizes">
	<g>
		<g>
			
				<linearGradient id="App_Icon_Placeholder_2_" gradientUnits="userSpaceOnUse" x1="11.9671" y1="168.0328" x2="168.0329" y2="11.967">
				<stop  offset="0" style="stop-color:#FBB03B"/>
				<stop  offset="1" style="stop-color:#ED1E79"/>
			</linearGradient>
			<path id="App_Icon_Placeholder_1_" class="st0" d="M62.8,0h54.5c18.1,0,27.1,0,36.8,3.1c10.6,3.9,19,12.2,22.8,22.9
				c3.1,9.7,3.1,18.8,3.1,36.8v54.5c0,18.1,0,27.1-3.1,36.8c-3.9,10.6-12.2,19-22.8,22.8c-9.7,3.1-18.8,3.1-36.8,3.1H62.8
				c-18.1,0-27.1,0-36.8-3.1c-10.6-3.9-19-12.2-22.8-22.8C0,144.3,0,135.3,0,117.2V62.8c0-18.1,0-27.1,3.1-36.8
				c3.9-10.6,12.2-19,22.8-22.9C35.7,0,44.7,0,62.8,0L62.8,0"/>
		</g>
	</g>
	<path d="M164.9,43l-38.1-17.8c0,0-0.1,0-0.1,0c-0.1,0-0.2-0.1-0.3-0.1c-0.1,0-0.2,0-0.3-0.1c-0.1,0-0.2,0-0.3,0c-0.1,0-0.2,0-0.3,0
		c-0.1,0-0.2,0-0.3,0.1c-0.1,0-0.2,0.1-0.3,0.1c0,0-0.1,0-0.1,0L90.2,40L55.6,25.2c0,0,0,0-0.1,0c-0.1,0-0.2-0.1-0.3-0.1
		c-0.1,0-0.2-0.1-0.3-0.1c-0.1,0-0.2,0-0.3,0c-0.1,0-0.2,0-0.3,0c-0.1,0-0.2,0-0.3,0.1c-0.1,0-0.2,0-0.3,0.1c0,0,0,0-0.1,0
		L15.6,40.4c-1,0.4-1.6,1.3-1.6,2.4V152c0,0.8,0.4,1.6,1.1,2.1c0.4,0.3,0.9,0.4,1.4,0.4c0.3,0,0.6-0.1,0.9-0.2l37.1-14.8l34.6,14.8
		c0,0,0.1,0,0.1,0c0.3,0.1,0.6,0.2,0.9,0.2s0.6-0.1,0.9-0.2c0,0,0.1,0,0.1,0l34.6-14.8l37.1,14.8c0.3,0.1,0.6,0.2,0.9,0.2
		c0.5,0,1-0.1,1.4-0.4c0.7-0.5,1.1-1.3,1.1-2.1V45.3C166.4,44.3,165.8,43.4,164.9,43z M19.1,44.5l33-13.2V135l-33,13.2V44.5z
		 M57.2,31.4l30.5,13.1v103.7L57.2,135V31.4z M92.7,44.4l30.5-13.1V135l-30.5,13.1V44.4z M161.3,148.2l-33-13.2V31.5l33,15.4V148.2z
		"/>
	<g>
		<g>
			<g>
				<path class="st1" d="M111.2,29c-15.9,0-28.8,12.9-28.8,28.8c0,4.8,1.2,9.5,3.5,13.7l23.8,43c0.3,0.6,0.9,0.9,1.6,0.9
					s1.3-0.4,1.6-0.9l23.8-43c2.3-4.2,3.5-8.9,3.5-13.7C140,41.9,127.1,29,111.2,29z M133.4,69.8L111.2,110L89,69.8
					c-2-3.7-3-7.8-3-12c0-13.9,11.3-25.2,25.2-25.2s25.2,11.3,25.2,25.2C136.4,62,135.4,66.2,133.4,69.8z"/>
				<path class="st1" d="M111.2,43.4c-7.9,0-14.4,6.5-14.4,14.4c0,7.9,6.5,14.4,14.4,14.4s14.4-6.5,14.4-14.4S119.1,43.4,111.2,43.4
					z M111.2,68.6c-6,0-10.8-4.9-10.8-10.8S105.2,47,111.2,47c6,0,10.8,4.9,10.8,10.8C122,63.8,117.1,68.6,111.2,68.6z"/>
			</g>
		</g>
	</g>
</g>
</svg>
